name C:\Users\u0101727\Documents\MyRepositories\upper-imu-dc\OpenSim\subject0\MA\ResultsMA\grid_4nodes_9dim\angles_13.mot
datacolumns 10
datarows 52
range 1375.01000000 1375.52000000
endheader 
time	clav_prot	clav_elev	scapula_abduction	scapula_elevation	scapula_upward_rot	scapula_winging	plane_elv	shoulder_elv	axial_rot	
       1375.01000000	        -50.00000000	         20.00000000	        -21.66666667	        -10.00000000	         30.00000000	          0.00000000	        -30.00000000	        -10.00000000	         30.00000000	
       1375.02000000	        -38.33333333	         20.00000000	        -21.66666667	        -10.00000000	         30.00000000	          0.00000000	        -30.00000000	        -10.00000000	         30.00000000	
       1375.03000000	        -26.66666667	         20.00000000	        -21.66666667	        -10.00000000	         30.00000000	          0.00000000	        -30.00000000	        -10.00000000	         30.00000000	
       1375.04000000	        -15.00000000	         20.00000000	        -21.66666667	        -10.00000000	         30.00000000	          0.00000000	        -30.00000000	        -10.00000000	         30.00000000	
       1375.05000000	        -50.00000000	        -10.00000000	         -3.33333333	        -10.00000000	         30.00000000	          0.00000000	        -30.00000000	        -10.00000000	         30.00000000	
       1375.06000000	        -38.33333333	        -10.00000000	         -3.33333333	        -10.00000000	         30.00000000	          0.00000000	        -30.00000000	        -10.00000000	         30.00000000	
       1375.07000000	        -26.66666667	        -10.00000000	         -3.33333333	        -10.00000000	         30.00000000	          0.00000000	        -30.00000000	        -10.00000000	         30.00000000	
       1375.08000000	        -15.00000000	        -10.00000000	         -3.33333333	        -10.00000000	         30.00000000	          0.00000000	        -30.00000000	        -10.00000000	         30.00000000	
       1375.09000000	        -50.00000000	          0.00000000	         -3.33333333	        -10.00000000	         30.00000000	          0.00000000	        -30.00000000	        -10.00000000	         30.00000000	
       1375.10000000	        -38.33333333	          0.00000000	         -3.33333333	        -10.00000000	         30.00000000	          0.00000000	        -30.00000000	        -10.00000000	         30.00000000	
       1375.11000000	        -26.66666667	          0.00000000	         -3.33333333	        -10.00000000	         30.00000000	          0.00000000	        -30.00000000	        -10.00000000	         30.00000000	
       1375.12000000	        -15.00000000	          0.00000000	         -3.33333333	        -10.00000000	         30.00000000	          0.00000000	        -30.00000000	        -10.00000000	         30.00000000	
       1375.13000000	        -50.00000000	         10.00000000	         -3.33333333	        -10.00000000	         30.00000000	          0.00000000	        -30.00000000	        -10.00000000	         30.00000000	
       1375.14000000	        -38.33333333	         10.00000000	         -3.33333333	        -10.00000000	         30.00000000	          0.00000000	        -30.00000000	        -10.00000000	         30.00000000	
       1375.15000000	        -26.66666667	         10.00000000	         -3.33333333	        -10.00000000	         30.00000000	          0.00000000	        -30.00000000	        -10.00000000	         30.00000000	
       1375.16000000	        -15.00000000	         10.00000000	         -3.33333333	        -10.00000000	         30.00000000	          0.00000000	        -30.00000000	        -10.00000000	         30.00000000	
       1375.17000000	        -50.00000000	         20.00000000	         -3.33333333	        -10.00000000	         30.00000000	          0.00000000	        -30.00000000	        -10.00000000	         30.00000000	
       1375.18000000	        -38.33333333	         20.00000000	         -3.33333333	        -10.00000000	         30.00000000	          0.00000000	        -30.00000000	        -10.00000000	         30.00000000	
       1375.19000000	        -26.66666667	         20.00000000	         -3.33333333	        -10.00000000	         30.00000000	          0.00000000	        -30.00000000	        -10.00000000	         30.00000000	
       1375.20000000	        -15.00000000	         20.00000000	         -3.33333333	        -10.00000000	         30.00000000	          0.00000000	        -30.00000000	        -10.00000000	         30.00000000	
       1375.21000000	        -50.00000000	        -10.00000000	         15.00000000	        -10.00000000	         30.00000000	          0.00000000	        -30.00000000	        -10.00000000	         30.00000000	
       1375.22000000	        -38.33333333	        -10.00000000	         15.00000000	        -10.00000000	         30.00000000	          0.00000000	        -30.00000000	        -10.00000000	         30.00000000	
       1375.23000000	        -26.66666667	        -10.00000000	         15.00000000	        -10.00000000	         30.00000000	          0.00000000	        -30.00000000	        -10.00000000	         30.00000000	
       1375.24000000	        -15.00000000	        -10.00000000	         15.00000000	        -10.00000000	         30.00000000	          0.00000000	        -30.00000000	        -10.00000000	         30.00000000	
       1375.25000000	        -50.00000000	          0.00000000	         15.00000000	        -10.00000000	         30.00000000	          0.00000000	        -30.00000000	        -10.00000000	         30.00000000	
       1375.26000000	        -38.33333333	          0.00000000	         15.00000000	        -10.00000000	         30.00000000	          0.00000000	        -30.00000000	        -10.00000000	         30.00000000	
       1375.27000000	        -26.66666667	          0.00000000	         15.00000000	        -10.00000000	         30.00000000	          0.00000000	        -30.00000000	        -10.00000000	         30.00000000	
       1375.28000000	        -15.00000000	          0.00000000	         15.00000000	        -10.00000000	         30.00000000	          0.00000000	        -30.00000000	        -10.00000000	         30.00000000	
       1375.29000000	        -50.00000000	         10.00000000	         15.00000000	        -10.00000000	         30.00000000	          0.00000000	        -30.00000000	        -10.00000000	         30.00000000	
       1375.30000000	        -38.33333333	         10.00000000	         15.00000000	        -10.00000000	         30.00000000	          0.00000000	        -30.00000000	        -10.00000000	         30.00000000	
       1375.31000000	        -26.66666667	         10.00000000	         15.00000000	        -10.00000000	         30.00000000	          0.00000000	        -30.00000000	        -10.00000000	         30.00000000	
       1375.32000000	        -15.00000000	         10.00000000	         15.00000000	        -10.00000000	         30.00000000	          0.00000000	        -30.00000000	        -10.00000000	         30.00000000	
       1375.33000000	        -50.00000000	         20.00000000	         15.00000000	        -10.00000000	         30.00000000	          0.00000000	        -30.00000000	        -10.00000000	         30.00000000	
       1375.34000000	        -38.33333333	         20.00000000	         15.00000000	        -10.00000000	         30.00000000	          0.00000000	        -30.00000000	        -10.00000000	         30.00000000	
       1375.35000000	        -26.66666667	         20.00000000	         15.00000000	        -10.00000000	         30.00000000	          0.00000000	        -30.00000000	        -10.00000000	         30.00000000	
       1375.36000000	        -15.00000000	         20.00000000	         15.00000000	        -10.00000000	         30.00000000	          0.00000000	        -30.00000000	        -10.00000000	         30.00000000	
       1375.37000000	        -50.00000000	        -10.00000000	        -40.00000000	         -3.33333333	         30.00000000	          0.00000000	        -30.00000000	        -10.00000000	         30.00000000	
       1375.38000000	        -38.33333333	        -10.00000000	        -40.00000000	         -3.33333333	         30.00000000	          0.00000000	        -30.00000000	        -10.00000000	         30.00000000	
       1375.39000000	        -26.66666667	        -10.00000000	        -40.00000000	         -3.33333333	         30.00000000	          0.00000000	        -30.00000000	        -10.00000000	         30.00000000	
       1375.40000000	        -15.00000000	        -10.00000000	        -40.00000000	         -3.33333333	         30.00000000	          0.00000000	        -30.00000000	        -10.00000000	         30.00000000	
       1375.41000000	        -50.00000000	          0.00000000	        -40.00000000	         -3.33333333	         30.00000000	          0.00000000	        -30.00000000	        -10.00000000	         30.00000000	
       1375.42000000	        -38.33333333	          0.00000000	        -40.00000000	         -3.33333333	         30.00000000	          0.00000000	        -30.00000000	        -10.00000000	         30.00000000	
       1375.43000000	        -26.66666667	          0.00000000	        -40.00000000	         -3.33333333	         30.00000000	          0.00000000	        -30.00000000	        -10.00000000	         30.00000000	
       1375.44000000	        -15.00000000	          0.00000000	        -40.00000000	         -3.33333333	         30.00000000	          0.00000000	        -30.00000000	        -10.00000000	         30.00000000	
       1375.45000000	        -50.00000000	         10.00000000	        -40.00000000	         -3.33333333	         30.00000000	          0.00000000	        -30.00000000	        -10.00000000	         30.00000000	
       1375.46000000	        -38.33333333	         10.00000000	        -40.00000000	         -3.33333333	         30.00000000	          0.00000000	        -30.00000000	        -10.00000000	         30.00000000	
       1375.47000000	        -26.66666667	         10.00000000	        -40.00000000	         -3.33333333	         30.00000000	          0.00000000	        -30.00000000	        -10.00000000	         30.00000000	
       1375.48000000	        -15.00000000	         10.00000000	        -40.00000000	         -3.33333333	         30.00000000	          0.00000000	        -30.00000000	        -10.00000000	         30.00000000	
       1375.49000000	        -50.00000000	         20.00000000	        -40.00000000	         -3.33333333	         30.00000000	          0.00000000	        -30.00000000	        -10.00000000	         30.00000000	
       1375.50000000	        -38.33333333	         20.00000000	        -40.00000000	         -3.33333333	         30.00000000	          0.00000000	        -30.00000000	        -10.00000000	         30.00000000	
       1375.51000000	        -26.66666667	         20.00000000	        -40.00000000	         -3.33333333	         30.00000000	          0.00000000	        -30.00000000	        -10.00000000	         30.00000000	
       1375.52000000	        -15.00000000	         20.00000000	        -40.00000000	         -3.33333333	         30.00000000	          0.00000000	        -30.00000000	        -10.00000000	         30.00000000	
